<svg width="30" height="40" fill="none" xmlns="http://www.w3.org/2000/svg">
    <path d="M14 14C12.0667 14 10.4167 13.3167 9.05 11.95C7.68333 10.5833 7 8.93333 7 7C7 5.06667 7.68333 3.41667 9.05 2.05C10.4167 0.683333 12.0667 0 14 0C15.9333 0 17.5833 0.683333 18.95 2.05C20.3167 3.41667 21 5.06667 21 7C21 8.93333 20.3167 10.5833 18.95 11.95C17.5833 13.3167 15.9333 14 14 14ZM14 10C14.8333 10 15.5417 9.70833 16.125 9.125C16.7083 8.54167 17 7.83333 17 7C17 6.16667 16.7083 5.45833 16.125 4.875C15.5417 4.29167 14.8333 4 14 4C13.1667 4 12.4583 4.29167 11.875 4.875C11.2917 5.45833 11 6.16667 11 7C11 7.83333 11.2917 8.54167 11.875 9.125C12.4583 9.70833 13.1667 10 14 10ZM14 40L2 28C1.33333 27.3333 0.833333 26.5833 0.5 25.75C0.166667 24.9167 0 24 0 23C0 21.0333 0.675 19.375 2.025 18.025C3.375 16.675 5.03333 16 7 16C7.96667 16 8.85833 16.1833 9.675 16.55C10.4917 16.9167 11.2333 17.4333 11.9 18.1L14 20.2L16.1 18.1C16.7667 17.4333 17.5083 16.9167 18.325 16.55C19.1417 16.1833 20.0333 16 21 16C22.9667 16 24.625 16.675 25.975 18.025C27.325 19.375 28 21.0333 28 23C28 24 27.8333 24.9167 27.5 25.75C27.1667 26.5833 26.6667 27.3333 26 28L14 40ZM14 34.3L23.1 25.2C23.4 24.9 23.625 24.5583 23.775 24.175C23.925 23.7917 24 23.4 24 23C24 22.2 23.7167 21.5 23.15 20.9C22.5833 20.3 21.8667 20 21 20C20.6 20 20.2417 20.0583 19.925 20.175C19.6083 20.2917 19.3 20.5 19 20.8L14 25.8L9 20.8C8.8 20.6 8.54167 20.4167 8.225 20.25C7.90833 20.0833 7.5 20 7 20C6.13333 20 5.41667 20.3 4.85 20.9C4.28333 21.5 4 22.2 4 23C4 23.4 4.08333 23.775 4.25 24.125C4.41667 24.475 4.63333 24.8 4.9 25.1L14 34.3Z" fill="#2399B5"/>
</svg>
